<?xml version="1.0" encoding="utf-8"?>
<!DOCTYPE svg PUBLIC "-//W3C//DTD SVG 1.0//EN" "http://www.w3.org/TR/2001/REC-SVG-20010904/DTD/svg10.dtd">
<svg version="1.0" xmlns="http://www.w3.org/2000/svg" width="200px" height="62px" viewBox="0 0 200 62" preserveAspectRatio="xMidYMid meet">
 <g fill="#e1b73a">
  <path d="M48.22 61.94 c-0.02 -0.08 -1.20 -3.19 -2.60 -6.93 -1.40 -3.73 -3.01 -8.03 -3.57 -9.54 -0.56 -1.51 -1.06 -2.84 -1.11 -2.96 -0.05 -0.13 -0.10 3.27 -0.10 8.15 -0.01 8.91 -0.01 8.93 0.52 9.67 0.28 0.40 0.79 0.65 1.53 0.75 0.56 0.08 0.58 0.10 0.58 0.40 l0 0.32 -2.96 0 -2.96 0 0 -0.32 c0 -0.30 0.03 -0.32 0.51 -0.39 0.93 -0.14 1.48 -0.66 1.69 -1.61 0.16 -0.68 0.16 -17.55 0 -17.96 -0.24 -0.63 -0.82 -0.99 -1.85 -1.16 -0.36 -0.05 -0.40 -0.10 -0.40 -0.39 l0 -0.31 2.66 0.02 2.67 0.03 2.77 7.38 c3.84 10.24 3.87 10.33 3.98 10.08 0.05 -0.12 0.66 -1.79 1.35 -3.72 1.37 -3.85 3.33 -9.18 4.39 -11.96 l0.67 -1.78 2.62 -0.03 2.61 -0.02 0 0.31 c0 0.31 -0.19 0.44 -0.69 0.44 -0.45 0 -1.14 0.45 -1.41 0.91 l-0.27 0.46 0 8.94 0 8.94 0.25 0.46 c0.29 0.56 0.83 0.87 1.61 0.95 0.52 0.05 0.53 0.05 0.50 0.39 l-0.03 0.33 -3.79 0.03 -3.80 0.02 0 -0.36 c0 -0.37 0.01 -0.37 0.54 -0.43 0.81 -0.10 1.26 -0.36 1.59 -0.93 l0.29 -0.50 0.03 -8.44 c0.01 -4.64 -0.02 -8.51 -0.06 -8.60 -0.06 -0.12 -0.46 0.86 -1.31 3.21 -0.67 1.85 -2.13 5.89 -3.27 8.98 -1.12 3.08 -2.17 5.98 -2.32 6.44 -0.25 0.71 -0.31 0.83 -0.53 0.83 -0.14 0 -0.28 -0.06 -0.30 -0.13z"/>
  <path d="M89.44 61.81 c-2.38 -0.83 -4.23 -2.52 -5.47 -4.98 -1.31 -2.61 -1.62 -6.37 -0.79 -9.68 1.23 -4.84 4.89 -7.93 9.39 -7.93 1.82 0 3.36 0.52 4.81 1.61 0.40 0.30 0.81 0.55 0.91 0.55 0.28 0 0.66 -0.47 0.86 -1.10 0.15 -0.48 0.23 -0.58 0.46 -0.60 l0.29 -0.03 0 3.62 0 3.62 -0.28 -0.03 c-0.36 -0.04 -0.40 -0.13 -0.67 -1.29 -0.80 -3.44 -3.10 -5.46 -6.21 -5.47 -2.06 0 -3.84 0.96 -5.04 2.73 -1.30 1.92 -1.90 4.82 -1.78 8.75 0.10 3.02 0.56 5.13 1.49 6.71 0.55 0.93 1.73 2.07 2.60 2.48 2.45 1.19 5.93 0.64 6.75 -1.08 0.24 -0.50 0.26 -0.79 0.25 -3.92 -0.01 -1.40 -0.03 -1.55 -0.26 -1.89 -0.33 -0.50 -0.97 -0.82 -1.80 -0.93 -0.69 -0.09 -0.70 -0.09 -0.73 -0.43 l-0.03 -0.36 3.77 0 3.78 0 0 0.32 c0 0.26 -0.05 0.33 -0.29 0.39 -0.52 0.12 -1.07 0.48 -1.28 0.83 -0.19 0.32 -0.20 0.64 -0.24 4.36 l-0.03 4.01 -0.30 0 c-0.27 0 -0.32 -0.05 -0.38 -0.40 -0.14 -0.77 -0.41 -1.43 -0.63 -1.55 -0.18 -0.10 -0.37 -0.02 -1.20 0.56 -0.54 0.37 -1.35 0.84 -1.79 1.03 l-0.82 0.36 -2.32 -0.01 c-2.12 0 -2.37 -0.02 -3.02 -0.25z"/>
  <path d="M129.46 61.72 c-0.10 -0.18 -1.31 -2.16 -2.72 -4.39 -1.39 -2.23 -3.27 -5.22 -4.15 -6.64 -0.89 -1.42 -2.08 -3.31 -2.65 -4.20 -0.56 -0.88 -1.42 -2.26 -1.92 -3.06 -0.56 -0.91 -0.92 -1.39 -0.95 -1.28 -0.03 0.09 -0.04 3.98 -0.03 8.66 0.03 7.92 0.04 8.53 0.23 8.93 0.38 0.84 1.05 1.26 2.18 1.37 0.28 0.03 0.32 0.08 0.32 0.36 l0 0.32 -2.96 0 -2.96 0 -0.03 -0.33 c-0.03 -0.32 -0.01 -0.33 0.47 -0.41 0.73 -0.10 1.17 -0.41 1.50 -1.07 l0.27 -0.56 0.03 -9.02 0.02 -9.01 -0.27 -0.30 c-0.32 -0.34 -0.95 -0.64 -1.58 -0.74 -0.42 -0.06 -0.46 -0.10 -0.46 -0.39 l0 -0.31 2.62 0 2.61 0 1.47 2.35 c0.81 1.28 2.23 3.56 3.17 5.03 0.94 1.49 2.60 4.13 3.69 5.87 1.10 1.75 2.06 3.25 2.14 3.34 0.13 0.13 0.15 -0.87 0.15 -6.92 0 -7.62 0 -7.64 -0.57 -8.27 -0.32 -0.34 -1.01 -0.66 -1.49 -0.66 -0.45 0 -0.69 -0.22 -0.58 -0.54 0.06 -0.20 0.14 -0.22 2.97 -0.22 l2.90 0 0 0.32 c0 0.26 -0.05 0.33 -0.27 0.38 -0.15 0.03 -0.38 0.08 -0.52 0.11 -0.40 0.08 -0.96 0.51 -1.20 0.92 -0.23 0.38 -0.23 0.51 -0.26 10.54 l-0.02 10.15 -0.48 0 c-0.43 0 -0.50 -0.03 -0.66 -0.34z"/>
  <path d="M142.81 61.89 l-7.58 -0.03 0 -0.38 c0 -0.33 0.03 -0.38 0.30 -0.38 0.51 0 1.14 -0.23 1.47 -0.52 0.63 -0.58 0.60 -0.22 0.60 -9.85 0 -8.42 -0.01 -8.89 -0.20 -9.31 -0.24 -0.53 -0.72 -0.85 -1.53 -1.02 -0.69 -0.14 -0.79 -0.22 -0.69 -0.52 l0.06 -0.23 7.44 0 7.42 0 -0.02 2.73 -0.03 2.72 -0.32 0.03 -0.32 0.03 -0.18 -1.08 c-0.25 -1.43 -0.67 -2.37 -1.28 -2.80 -0.84 -0.61 -1.38 -0.71 -4.03 -0.71 -2.70 0 -2.81 0.03 -3.19 0.84 -0.18 0.42 -0.20 0.77 -0.20 4.57 l0 4.13 0.28 0.06 c0.45 0.12 2.33 -0.02 2.75 -0.20 0.78 -0.32 1.42 -1.41 1.56 -2.66 0.11 -0.93 0.13 -0.97 0.47 -0.97 0.18 0 0.32 0.03 0.32 0.09 0 0.04 0.02 1.94 0.04 4.20 0.02 3.44 0 4.16 -0.12 4.29 -0.18 0.18 -0.20 0.18 -0.47 0.04 -0.16 -0.09 -0.20 -0.23 -0.20 -0.63 0 -0.73 -0.28 -1.72 -0.63 -2.22 -0.16 -0.24 -0.51 -0.54 -0.77 -0.68 -0.42 -0.22 -0.63 -0.25 -1.73 -0.25 -0.96 0 -1.29 0.03 -1.39 0.15 -0.10 0.11 -0.12 1.25 -0.10 4.29 0.03 4.03 0.04 4.14 0.27 4.50 0.47 0.77 0.65 0.81 3.37 0.81 2.80 0 3.32 -0.11 4.15 -0.83 0.77 -0.68 1.40 -2.19 1.72 -4.11 0.06 -0.39 0.09 -0.41 0.41 -0.38 0.41 0.04 0.39 -0.26 0.26 3.48 -0.09 2.44 -0.13 2.88 -0.27 2.83 -0.04 -0.02 -3.48 -0.04 -7.64 -0.05z"/>
  <path d="M27.28 61.51 c0.02 -0.29 0.09 -0.37 0.30 -0.39 0.98 -0.11 1.66 -0.55 1.95 -1.26 0.10 -0.25 0.12 -2.52 0.11 -9.16 -0.01 -8.66 -0.02 -8.84 -0.24 -9.29 -0.24 -0.50 -0.73 -0.86 -1.29 -0.96 -0.85 -0.14 -0.85 -0.14 -0.85 -0.47 l0 -0.32 3.83 0 3.83 0 0 0.32 c0 0.28 -0.04 0.32 -0.40 0.38 -1 0.17 -1.61 0.56 -1.90 1.23 -0.16 0.37 -0.24 16.51 -0.09 17.60 0.08 0.53 0.18 0.85 0.39 1.11 0.34 0.46 0.59 0.60 1.35 0.75 0.56 0.12 0.59 0.14 0.59 0.44 l0 0.31 -3.80 0.03 -3.80 0.02 0.03 -0.34z"/>
  <path d="M62 61.70 c-0.12 -0.31 0.02 -0.52 0.41 -0.66 0.60 -0.20 0.92 -0.43 1.33 -1 0.40 -0.56 0.33 -0.38 3.44 -8.53 1.21 -3.17 2.72 -7.13 3.36 -8.80 l1.17 -3.05 0.33 0 c0.32 0 0.33 0.02 0.84 1.38 1.16 3.10 3.02 8.10 5.20 14.08 0.80 2.20 1.61 4.27 1.79 4.61 0.39 0.74 0.79 1.10 1.40 1.27 0.25 0.06 0.52 0.14 0.59 0.16 0.09 0.02 0.13 0.16 0.11 0.33 l-0.03 0.30 -3.79 0.03 -3.80 0.02 0 -0.36 c0 -0.37 0.01 -0.37 0.55 -0.43 0.64 -0.08 1.11 -0.32 1.43 -0.75 0.39 -0.53 0.29 -1.06 -0.79 -4.01 -0.54 -1.48 -0.98 -2.70 -0.98 -2.72 0 -0.02 -1.62 -0.03 -3.60 -0.03 l-3.61 0 -0.31 0.84 c-1.56 4.03 -1.75 4.80 -1.34 5.57 0.39 0.77 1.01 1.13 1.94 1.13 0.32 0 0.34 0.02 0.34 0.38 l0 0.38 -2.96 0 c-2.49 0 -2.98 -0.02 -3.03 -0.15z m12.13 -9.17 c0 -0.12 -1.36 -3.95 -2.93 -8.27 -0.13 -0.37 -0.26 -0.39 -0.36 -0.05 -0.04 0.13 -0.75 2.05 -1.57 4.26 -0.83 2.20 -1.50 4.06 -1.50 4.12 0 0.06 1.14 0.11 3.18 0.11 2.73 0 3.18 -0.02 3.18 -0.16z"/>
  <path d="M103.66 61.50 c0 -0.36 0.01 -0.37 0.53 -0.43 0.83 -0.10 1.35 -0.42 1.64 -1 l0.25 -0.52 0 -8.84 c0 -8.58 0 -8.86 -0.20 -9.28 -0.25 -0.50 -0.78 -0.88 -1.34 -0.97 -0.86 -0.14 -0.87 -0.15 -0.87 -0.48 l0 -0.32 3.86 0.02 3.85 0.03 0 0.27 c0 0.23 -0.08 0.28 -0.54 0.39 -0.75 0.17 -1.05 0.30 -1.31 0.60 -0.59 0.63 -0.57 0.33 -0.57 9.78 0 7.62 0.02 8.78 0.16 9.13 0.31 0.75 0.75 1.06 1.69 1.20 0.54 0.08 0.57 0.10 0.57 0.40 l0 0.32 -3.85 0.03 -3.86 0.02 0 -0.36z"/>
  <path d="M153.49 61.70 c-0.15 -0.39 0 -0.55 0.59 -0.63 1.14 -0.17 1.64 -0.59 1.84 -1.55 0.08 -0.34 0.11 -3.46 0.09 -9.15 -0.03 -7.93 -0.04 -8.65 -0.22 -8.97 -0.34 -0.61 -0.84 -0.88 -1.94 -1.06 -0.37 -0.05 -0.41 -0.10 -0.41 -0.38 l0 -0.30 4.34 -0.04 c6.40 -0.06 7.39 0.05 9.56 1.12 1 0.50 1.25 0.68 2.21 1.65 0.88 0.88 1.17 1.25 1.57 2.05 0.96 1.86 1.39 3.75 1.39 6.09 0 2.14 -0.34 3.76 -1.12 5.44 -0.58 1.23 -0.96 1.80 -1.88 2.76 -1.49 1.58 -3.51 2.59 -5.95 2.95 -1.50 0.24 -10 0.24 -10.09 0.01z m10.46 -0.93 c0.86 -0.19 2.04 -0.82 2.70 -1.42 1.33 -1.21 2.19 -3.08 2.58 -5.63 0.26 -1.65 0.18 -5.50 -0.14 -6.92 -0.63 -2.79 -1.81 -4.56 -3.69 -5.53 -1.21 -0.64 -2.02 -0.80 -3.90 -0.81 -1.77 -0.01 -1.96 0.05 -2.40 0.81 -0.22 0.36 -0.22 0.56 -0.22 9.31 0 8.58 0.01 8.97 0.20 9.41 0.30 0.66 0.75 0.91 1.83 0.98 0.96 0.08 2.20 -0.01 3.03 -0.20z"/>
  <path d="M32.76 35.72 l0 -1.99 67.35 0 67.35 0 0 1.99 0 1.99 -67.35 0 -67.35 0 0 -1.99z"/>
  <path d="M101.62 32.05 c-4.26 -0.54 -7.12 -2.11 -9.22 -5.06 -1.02 -1.43 -1.84 -3.65 -2.09 -5.65 -0.06 -0.56 -0.11 -4.38 -0.11 -9.99 l0 -9.08 3.27 0.02 3.25 0.03 0.05 9.32 c0.08 10.34 0.03 9.74 0.81 11.37 0.97 2.03 2.93 3.18 5.40 3.18 0.55 0 1.26 -0.05 1.57 -0.12 2.07 -0.43 3.73 -2.14 4.36 -4.52 0.16 -0.64 0.19 -1.62 0.25 -9.97 l0.05 -9.27 3.27 -0.03 3.25 -0.02 0 9.08 c0 5.70 -0.04 9.42 -0.12 9.99 -0.48 3.92 -2.50 7.14 -5.63 9.01 -1.86 1.10 -3.85 1.64 -6.38 1.70 -0.88 0.02 -1.79 0.02 -1.99 0z"/>
  <path d="M41.90 19.81 l-0.03 -11.78 -4.56 -0.03 -4.56 -0.02 0.03 -2.83 0.03 -2.82 12.32 -0.03 12.31 -0.02 0 2.86 0 2.86 -4.49 0.02 -4.50 0.03 -0.03 11.78 -0.02 11.77 -3.23 0 -3.23 0 -0.02 -11.77z"/>
  <path d="M60.91 16.95 l0.03 -14.63 6.09 -0.03 c6.55 -0.03 8.06 0.03 9.91 0.45 4.07 0.93 6.79 3.25 7.90 6.80 0.93 2.95 0.51 6.52 -1.06 8.95 -0.80 1.24 -2.39 2.68 -3.63 3.29 -0.29 0.14 -0.52 0.30 -0.52 0.37 0 0.06 1.40 2.21 3.11 4.77 l3.10 4.66 -3.51 0 -3.51 0 -1.15 -1.76 c-0.63 -0.96 -1.77 -2.72 -2.52 -3.90 -0.75 -1.19 -1.44 -2.24 -1.53 -2.34 -0.15 -0.17 -0.44 -0.19 -3.17 -0.19 l-3 0 0 4.09 0 4.09 -3.29 0 -3.29 0 0.02 -14.62z m13.34 0.94 c1.09 -0.14 1.71 -0.37 2.48 -0.88 1.29 -0.86 1.95 -2.23 1.96 -4.07 0 -2.39 -1.03 -3.88 -3.19 -4.60 -0.86 -0.29 -0.91 -0.29 -4.45 -0.33 l-3.59 -0.04 -0.01 2.20 c-0.01 2.94 -0.01 6.23 0 7.12 l0.01 0.72 3 0 c1.64 0 3.35 -0.05 3.79 -0.11z"/>
  <path d="M122.11 16.95 l0.03 -14.63 3.25 -0.03 3.27 -0.02 0.02 11.82 0.03 11.83 7.04 0.03 7.03 0.02 0 2.80 0 2.80 -10.34 0 -10.34 0 0.02 -14.62z"/>
  <path d="M150.54 26.38 l0 -5.20 -0.52 -0.92 c-0.53 -0.93 -5.45 -9.40 -8.24 -14.17 -1.83 -3.13 -2.12 -3.64 -2.12 -3.75 0 -0.04 1.56 -0.06 3.47 -0.05 l3.47 0.03 3.45 6.03 c4.38 7.64 3.92 6.91 4.09 6.72 0.13 -0.13 1.82 -3.05 6.29 -10.87 l1.08 -1.89 3.31 -0.03 c2.88 -0.02 3.31 0 3.25 0.13 -0.05 0.14 -1.37 2.39 -4.82 8.25 -0.41 0.68 -1.25 2.13 -1.89 3.23 -0.64 1.10 -1.88 3.21 -2.76 4.70 l-1.61 2.69 0 5.14 0 5.14 -3.23 0 -3.23 0 0 -5.19z"/>
 </g>
</svg>